<svg xmlns="http://www.w3.org/2000/svg" width="21" height="21.064" viewBox="0 0 21 21.064">
  <path id="Add_new" data-name="Add new" d="M-176.143-2016.935a4.858,4.858,0,0,1-4.857-4.857v-8.8a4.857,4.857,0,0,1,4.857-4.857h3.861v1.389h-3.861a3.472,3.472,0,0,0-3.469,3.469v8.8a3.472,3.472,0,0,0,3.469,3.469h8.8a3.472,3.472,0,0,0,3.468-3.469v-3.926h1.389v3.926a4.857,4.857,0,0,1-4.856,4.857Zm8.808-9.479v-4.252h-4.253a.694.694,0,0,1-.694-.695.693.693,0,0,1,.694-.694h4.253v-4.252a.694.694,0,0,1,.694-.695.7.7,0,0,1,.695.695v4.252h4.252a.693.693,0,0,1,.694.694.693.693,0,0,1-.694.695h-4.252v4.252a.7.7,0,0,1-.695.695A.694.694,0,0,1-167.334-2026.414Z" transform="translate(181.5 2037.5)" fill="#e1007f" stroke="rgba(0,0,0,0)" stroke-miterlimit="10" stroke-width="1"/>
</svg>
